<svg id="Layer_1" data-name="Layer 1" xmlns="http://www.w3.org/2000/svg" viewBox="0 0 851.14 143.51"><defs><style>.cls-1,.cls-2{opacity:0.11;}</style></defs><g class="cls-1"><path d="M218.53,496.18q0,46.89-53.57,46.88-10.16,0-21.05-.95v52.62h-21V456a295.44,295.44,0,0,1,42.1-2.87q26.4,0,40,11.19T218.53,496.18Z" transform="translate(-122.86 -453.13)"/><path d="M218.55,594.73V455h23V594.73Z" transform="translate(-122.86 -453.13)"/><path d="M710.51,465.18v119.4q-19.14,12.06-44,12.06-31.95,0-51.38-19.42-15.4-15.42-18.59-39.34v46.7q-19.14,12.06-44,12.06-31.95,0-51.38-19.42Q486.71,562.78,483,540.87q-3.58,21.76-17.5,36.25-18.75,19.53-50.13,19.52t-50.14-19.52a62.94,62.94,0,0,1-12.53-18.94q-6.22-14.46-6.22-33.3c0-2.72.1-5.38.29-8q2.06-27.19,18.46-44.27,18.76-19.53,50.14-19.52t50.13,19.52q13.9,14.48,17.5,36.2,3.63-21.87,17.86-36.3,19.13-19.41,51.66-19.42,24.87,0,44,12.05v46.63q3.13-23.87,18.31-39.26Q634,453.14,666.5,453.13,691.37,453.13,710.51,465.18Z" transform="translate(-122.86 -453.13)"/><path d="M974,524.88q0,32.73-18.75,52.24t-50.14,19.52q-31.38,0-50.13-19.52-13.14-13.68-17.07-33.85v51.46H815V455h23v51.45q3.93-20.16,17.07-33.84,18.75-19.53,50.13-19.52t50.14,19.52Q974,492.17,974,524.88Z" transform="translate(-122.86 -453.13)"/></g><polygon class="cls-2" points="138.28 141.6 204.1 141.6 138.28 37.31 138.28 141.6"/><polygon class="cls-2" points="138.28 1.91 204.1 106.2 204.1 1.91 138.28 1.91"/><rect class="cls-2" x="606.32" y="2.39" width="66.44" height="58.47"/><rect class="cls-2" x="606.32" y="74.14" width="66.44" height="66.44"/></svg>