<?xml version="1.0" encoding="utf-8"?>
<!-- Generator: Adobe Illustrator 25.4.1, SVG Export Plug-In . SVG Version: 6.00 Build 0)  -->
<svg version="1.1" id="Layer_1" xmlns="http://www.w3.org/2000/svg" xmlns:xlink="http://www.w3.org/1999/xlink" x="0px" y="0px"
	 viewBox="0 0 851.1 143.5" style="enable-background:new 0 0 851.1 143.5;" xml:space="preserve">
<style type="text/css">
	.st0{fill:#E8E8E8;}
</style>
<path class="st0" d="M21.1,89v52.6h-21V2.9C14,0.9,28.1,0,42.2,0c17.6,0,30.9,3.7,40,11.2c9.1,7.5,13.6,18.1,13.6,31.9
	c0,31.3-17.9,46.9-53.6,46.9C35.4,89.9,28.3,89.6,21.1,89z M21.1,72c6.3,1,12.7,1.5,19.1,1.5C51.4,73.5,60,71,66,66.1s9-12,9-21.1
	c0-9.2-2.9-16.2-8.8-21c-5.9-4.8-14.5-7.2-26-7.1c-6.4-0.1-12.8,0.4-19.1,1.3L21.1,72z"/>
<path class="st0" d="M95.7,141.6V1.9h23v139.7H95.7z"/>
<path class="st0" d="M242.4,19.5C254.9,6.5,271.6,0,292.5,0c20.9,0,37.6,6.5,50.1,19.5c12.5,13,18.8,30.4,18.8,52.2
	c0,21.8-6.2,39.2-18.8,52.2c-12.5,13-29.2,19.5-50.1,19.5c-20.9,0-37.6-6.5-50.1-19.5c-12.5-13-18.8-30.4-18.8-52.2
	C223.6,49.9,229.9,32.5,242.4,19.5z M258.1,111.6c8.7,9.8,20.1,14.6,34.4,14.6s25.8-4.9,34.4-14.6s13-23.1,13-39.9
	c0-16.8-4.3-30.1-13-39.9c-8.7-9.8-20.1-14.6-34.4-14.6c-14.3,0-25.8,4.9-34.4,14.7c-8.7,9.8-13,23.1-13,39.9
	C245.1,88.6,249.4,101.9,258.1,111.6L258.1,111.6z"/>
<path class="st0" d="M431.6,17.2c-15.4,0-27.8,5-37.2,14.9c-9.4,10-14.1,23.2-14.1,39.6c0,16.6,4.8,29.8,14.3,39.7
	c9.6,9.9,21.9,14.8,36.9,14.8c12.6-0.1,24.8-3.7,35.4-10.5l6.7,15.7c-12.8,8-27.4,12.1-44,12.1c-21.3,0-38.4-6.5-51.4-19.4
	c-13-12.9-19.4-30.4-19.4-52.3c0-21.9,6.4-39.4,19.1-52.3C390.8,6.5,408,0,429.7,0c16.6,0,31.2,4,44,12L467,27.7
	C456.4,20.9,444.1,17.3,431.6,17.2z"/>
<path class="st0" d="M545.6,17.2c-15.4,0-27.8,5-37.2,14.9c-9.4,10-14.1,23.2-14.1,39.6c0,16.6,4.8,29.8,14.3,39.7
	s21.9,14.8,36.9,14.8c12.6-0.1,24.8-3.7,35.4-10.5l6.7,15.7c-12.8,8-27.4,12.1-44,12.1c-21.3,0-38.4-6.5-51.4-19.4
	c-13-12.9-19.4-30.4-19.4-52.3c0-21.9,6.4-39.4,19.1-52.3C504.7,6.5,522,0,543.6,0c16.6,0,31.2,4,44,12L581,27.7
	C570.4,20.9,558.1,17.3,545.6,17.2z"/>
<path class="st0" d="M692.1,141.6V1.9h23v139.7H692.1z"/>
<path class="st0" d="M732.1,19.5C744.6,6.5,761.3,0,782.3,0c20.9,0,37.6,6.5,50.1,19.5c12.5,13,18.7,30.4,18.7,52.2
	c0,21.8-6.2,39.2-18.8,52.2c-12.5,13-29.2,19.5-50.1,19.5c-20.9,0-37.6-6.5-50.1-19.5c-12.5-13-18.8-30.4-18.8-52.2
	C713.4,49.9,719.6,32.5,732.1,19.5z M747.8,111.6c8.7,9.8,20.1,14.6,34.4,14.6s25.8-4.9,34.5-14.6c8.7-9.8,13-23.1,13-39.9
	c0-16.8-4.3-30.1-13-39.9c-8.7-9.8-20.2-14.6-34.5-14.6c-14.3,0-25.8,4.9-34.5,14.7c-8.7,9.8-13,23.1-13,39.9
	C734.8,88.6,739.1,101.9,747.8,111.6L747.8,111.6z"/>
<rect x="11" y="15.7" class="st0" width="71.8" height="58.5"/>
<ellipse class="st0" cx="294" cy="74.2" rx="57.1" ry="63.8"/>
<polygon class="st0" points="473.7,12.1 473.7,131.5 412.4,131.5 377.8,106 367.1,55.5 397,12.1 "/>
<polygon class="st0" points="587.7,131.5 587.7,12.1 543.6,0 492,19.4 478.8,84.8 504.1,131.5 "/>
<ellipse class="st0" cx="783" cy="74.2" rx="57.1" ry="63.8"/>
<polygon class="st0" points="138.3,141.6 204.1,141.6 138.3,37.3 "/>
<polygon class="st0" points="138.3,1.9 204.1,106.2 204.1,1.9 "/>
<rect x="606.3" y="2.4" class="st0" width="66.4" height="58.5"/>
<rect x="606.3" y="74.2" class="st0" width="66.4" height="66.4"/>
</svg>
