<svg id="Layer_1" data-name="Layer 1" xmlns="http://www.w3.org/2000/svg" viewBox="0 0 851.14 143.51"><defs><style>.cls-1{fill:#697b8e;}</style></defs><path class="cls-1" d="M143.91,542.11v52.62h-21V456a295.44,295.44,0,0,1,42.1-2.87q26.4,0,40,11.19t13.58,31.86q0,46.89-53.57,46.88Q154.81,543.06,143.91,542.11Zm0-17A120.84,120.84,0,0,0,163,526.61q16.83,0,25.83-7.37t9-21.15q0-13.77-8.81-20.95T163,470a120.66,120.66,0,0,0-19.13,1.34Z" transform="translate(-122.86 -453.13)"/><path class="cls-1" d="M218.55,594.73V455h23V594.73Z" transform="translate(-122.86 -453.13)"/><path class="cls-1" d="M365.23,472.65q18.76-19.53,50.14-19.52t50.13,19.52q18.75,19.52,18.75,52.23T465.5,577.12q-18.75,19.53-50.13,19.52t-50.14-19.52q-18.75-19.51-18.75-52.24T365.23,472.65Zm15.7,92.13q13,14.64,34.44,14.64t34.44-14.64q13-14.64,13-39.9t-13-39.89q-13-14.64-34.44-14.64T380.93,485q-13,14.64-13,39.89T380.93,564.78Z" transform="translate(-122.86 -453.13)"/><path class="cls-1" d="M554.44,470.35q-23.16,0-37.22,14.93t-14.07,39.6q0,24.89,14.35,39.71t36.94,14.83a65.84,65.84,0,0,0,35.4-10.52l6.69,15.68q-19.14,12.06-44,12.06-31.95,0-51.38-19.42t-19.42-52.34q0-32.89,19.14-52.33t51.66-19.42q24.87,0,44,12.05l-6.69,15.69A65.84,65.84,0,0,0,554.44,470.35Z" transform="translate(-122.86 -453.13)"/><path class="cls-1" d="M668.42,470.35q-23.16,0-37.22,14.93t-14.07,39.6q0,24.89,14.35,39.71t36.94,14.83a65.84,65.84,0,0,0,35.4-10.52l6.69,15.68q-19.14,12.06-44,12.06-31.95,0-51.38-19.42T595.7,524.88q0-32.89,19.14-52.33t51.66-19.42q24.87,0,44,12.05l-6.69,15.69A65.84,65.84,0,0,0,668.42,470.35Z" transform="translate(-122.86 -453.13)"/><path class="cls-1" d="M815,594.73V455h23V594.73Z" transform="translate(-122.86 -453.13)"/><path class="cls-1" d="M855,472.65q18.75-19.53,50.13-19.52t50.14,19.52Q974,492.17,974,524.88t-18.75,52.24q-18.76,19.53-50.14,19.52T855,577.12q-18.75-19.51-18.75-52.24T855,472.65Zm15.69,92.13q13,14.64,34.44,14.64t34.45-14.64q13-14.64,13-39.9t-13-39.89q-13-14.64-34.45-14.64T870.67,485q-13,14.64-13,39.89T870.67,564.78Z" transform="translate(-122.86 -453.13)"/><rect class="cls-1" x="11.01" y="15.68" width="71.76" height="58.47"/><ellipse class="cls-1" cx="294.05" cy="74.15" rx="57.14" ry="63.78"/><polygon class="cls-1" points="473.67 12.05 473.67 131.46 412.42 131.46 377.76 106.04 367.13 55.54 397.05 12.05 473.67 12.05"/><polygon class="cls-1" points="587.65 131.46 587.65 12.05 543.64 0 491.98 19.42 478.75 84.78 504.13 131.46 587.65 131.46"/><ellipse class="cls-1" cx="783.05" cy="74.15" rx="57.14" ry="63.78"/><polygon class="cls-1" points="138.28 141.6 204.11 141.6 138.28 37.31 138.28 141.6"/><polygon class="cls-1" points="138.28 1.92 204.11 106.2 204.11 1.92 138.28 1.92"/><rect class="cls-1" x="606.32" y="2.39" width="66.44" height="58.47"/><rect class="cls-1" x="606.32" y="74.15" width="66.44" height="66.44"/></svg>