<svg id="Layer_1" data-name="Layer 1" xmlns="http://www.w3.org/2000/svg" viewBox="0 0 579.89 545.46"><defs><style>.cls-1{font-size:151.49px;}.cls-1,.cls-2,.cls-3{fill:#e8e8e8;}.cls-1,.cls-2{font-family:EuphoriaScript-Regular, Euphoria Script;}.cls-2{font-size:367.53px;}</style></defs><text class="cls-1" transform="translate(167.95 408.84) scale(1.15 1)">inocchio</text><text x="-250.53" y="-168.55"/><text class="cls-2" transform="translate(37.64 415.5)">p</text><path class="cls-3" d="M608.35,620.4a10.88,10.88,0,0,1,5.93,1.64,11.83,11.83,0,0,1,4.1,4.53,15.18,15.18,0,0,1,0,13.24,11.9,11.9,0,0,1-4.13,4.58,10.65,10.65,0,0,1-5.85,1.67,10.09,10.09,0,0,1-3.27-.52,11.15,11.15,0,0,1-2.83-1.4,10.93,10.93,0,0,1-2.26-2.09,10.74,10.74,0,0,1-1.57-2.58l.89-.69v15.29a1.44,1.44,0,0,1-.42,1,1.38,1.38,0,0,1-1.06.45,1.46,1.46,0,0,1-1.08-.45,1.39,1.39,0,0,1-.44-1V622a1.53,1.53,0,0,1,.41-1.08,1.44,1.44,0,0,1,1.11-.44,1.37,1.37,0,0,1,1.06.44,1.49,1.49,0,0,1,.42,1.08v5.31l-.69-.39a8.33,8.33,0,0,1,1.45-2.73,9.79,9.79,0,0,1,5-3.37A11.18,11.18,0,0,1,608.35,620.4Zm-.24,2.75a8.39,8.39,0,0,0-4.67,1.3,9.16,9.16,0,0,0-3.18,3.54,11.15,11.15,0,0,0-1.15,5.19,11.5,11.5,0,0,0,1.15,5.21,9,9,0,0,0,3.18,3.61,8.39,8.39,0,0,0,4.67,1.3,8.17,8.17,0,0,0,4.59-1.3,9,9,0,0,0,3.15-3.61,11.5,11.5,0,0,0,1.15-5.21,11.17,11.17,0,0,0-1.15-5.16,9.11,9.11,0,0,0-3.15-3.57A8.17,8.17,0,0,0,608.11,623.15Z" transform="translate(-250.53 -168.55)"/><path class="cls-3" d="M649.59,633.13a13.79,13.79,0,0,1-1.62,6.71,12.43,12.43,0,0,1-17.13,4.67,12.24,12.24,0,0,1-4.47-4.67,14.53,14.53,0,0,1,0-13.45,12.53,12.53,0,0,1,4.47-4.67,12.6,12.6,0,0,1,12.71,0,12.4,12.4,0,0,1,4.42,4.67A13.8,13.8,0,0,1,649.59,633.13Zm-3,0a11.35,11.35,0,0,0-1.22-5.33,9.41,9.41,0,0,0-3.37-3.67,9.59,9.59,0,0,0-9.71,0,9.53,9.53,0,0,0-3.42,3.67,11.95,11.95,0,0,0,0,10.64,9.72,9.72,0,0,0,3.42,3.66,9.4,9.4,0,0,0,9.71,0,9.59,9.59,0,0,0,3.37-3.66A11.24,11.24,0,0,0,646.64,633.13Z" transform="translate(-250.53 -168.55)"/><path class="cls-3" d="M654.46,641.73a2,2,0,0,1-.37-1.15,1.09,1.09,0,0,1,.62-.91,1.16,1.16,0,0,1,.91-.3,1.6,1.6,0,0,1,1,.49,10.47,10.47,0,0,0,3.22,2.78,9,9,0,0,0,4.5,1.06,8.34,8.34,0,0,0,2.73-.47,5.35,5.35,0,0,0,2.24-1.42,3.45,3.45,0,0,0,.88-2.44,3.34,3.34,0,0,0-.88-2.43,6.53,6.53,0,0,0-2.29-1.48,22.29,22.29,0,0,0-3-1c-1.12-.3-2.19-.63-3.22-1a11.94,11.94,0,0,1-2.78-1.43A6.43,6.43,0,0,1,656,630a5.84,5.84,0,0,1-.71-3,6.21,6.21,0,0,1,1.1-3.63,7.34,7.34,0,0,1,3.07-2.46,10.58,10.58,0,0,1,4.38-.89,12.55,12.55,0,0,1,2.7.32,11.47,11.47,0,0,1,2.81,1.06,8.34,8.34,0,0,1,2.45,2,1.36,1.36,0,0,1,.45,1,1.49,1.49,0,0,1-.5,1.06,1.3,1.3,0,0,1-.9.27,1.17,1.17,0,0,1-.87-.42,7.49,7.49,0,0,0-2.8-2,9.15,9.15,0,0,0-3.49-.66,8.14,8.14,0,0,0-2.68.44,5.11,5.11,0,0,0-2.09,1.38,3.57,3.57,0,0,0-.83,2.46,3.39,3.39,0,0,0,1,2.31,7.05,7.05,0,0,0,2.41,1.47,31,31,0,0,0,3.36,1.08,28.16,28.16,0,0,1,3,.94,10.63,10.63,0,0,1,2.55,1.35,6,6,0,0,1,1.77,2,6.49,6.49,0,0,1,.66,3.09,6,6,0,0,1-1.2,3.74,7.66,7.66,0,0,1-3.22,2.41,11.49,11.49,0,0,1-4.47.84,13.26,13.26,0,0,1-5.14-1A11,11,0,0,1,654.46,641.73Z" transform="translate(-250.53 -168.55)"/><path class="cls-3" d="M677.32,620.69h11.45a1.31,1.31,0,0,1,1,.42,1.42,1.42,0,0,1,.39,1,1.33,1.33,0,0,1-.39,1,1.36,1.36,0,0,1-1,.39H677.32a1.42,1.42,0,0,1-1.43-1.42,1.29,1.29,0,0,1,.42-1A1.4,1.4,0,0,1,677.32,620.69Zm5.06-6.93a1.41,1.41,0,0,1,1.06.44,1.47,1.47,0,0,1,.42,1v24.67a4.48,4.48,0,0,0,.37,2.07,1.82,1.82,0,0,0,.95.91,3.32,3.32,0,0,0,1.18.22,2.05,2.05,0,0,0,.72-.12,1.8,1.8,0,0,1,.71-.13,1,1,0,0,1,.76.35,1.25,1.25,0,0,1,.32.88,1.35,1.35,0,0,1-.79,1.16,3.56,3.56,0,0,1-1.86.46c-.3,0-.74,0-1.33-.07a5,5,0,0,1-1.82-.54,3.71,3.71,0,0,1-1.57-1.65,7.16,7.16,0,0,1-.64-3.39V615.24a1.45,1.45,0,0,1,.44-1A1.5,1.5,0,0,1,682.38,613.76Z" transform="translate(-250.53 -168.55)"/><path class="cls-3" d="M706.72,646.21a13.37,13.37,0,0,1-6.69-1.63,11.49,11.49,0,0,1-4.52-4.52,13.66,13.66,0,0,1-1.63-6.78,14.4,14.4,0,0,1,1.65-7.13,12.05,12.05,0,0,1,4.28-4.55,10.61,10.61,0,0,1,5.58-1.6,11.87,11.87,0,0,1,4.2.77,10.7,10.7,0,0,1,3.64,2.26,11.26,11.26,0,0,1,2.56,3.66,13.48,13.48,0,0,1,1.05,5,1.48,1.48,0,0,1-.49,1,1.44,1.44,0,0,1-1,.42H695.61l-.59-2.66h19.36l-.63.59v-1a7.45,7.45,0,0,0-1.53-3.91,8.75,8.75,0,0,0-3.07-2.45,8.52,8.52,0,0,0-3.76-.86,8.31,8.31,0,0,0-3,.59,7.83,7.83,0,0,0-2.81,1.84,9.62,9.62,0,0,0-2,3.19,12.34,12.34,0,0,0-.78,4.6,11.55,11.55,0,0,0,1.18,5.26,9.05,9.05,0,0,0,3.41,3.74,10.05,10.05,0,0,0,5.34,1.37,8.91,8.91,0,0,0,3.07-.49,9.14,9.14,0,0,0,2.41-1.3,9.71,9.71,0,0,0,1.74-1.7,1.7,1.7,0,0,1,1-.44,1.18,1.18,0,0,1,.91.39,1.27,1.27,0,0,1,.37.89,1.33,1.33,0,0,1-.49,1,13.08,13.08,0,0,1-3.83,3.07A10.53,10.53,0,0,1,706.72,646.21Z" transform="translate(-250.53 -168.55)"/><path class="cls-3" d="M724.61,645.71a1.47,1.47,0,0,1-1.53-1.47v-22a1.42,1.42,0,0,1,.45-1,1.47,1.47,0,0,1,1.08-.44,1.43,1.43,0,0,1,1.06.44,1.5,1.5,0,0,1,.41,1v7.37l-.73.15a10.89,10.89,0,0,1,.86-3.42,11.54,11.54,0,0,1,1.94-3.12,9.82,9.82,0,0,1,2.92-2.31,8.11,8.11,0,0,1,3.81-.89,4.33,4.33,0,0,1,1.72.37,1.25,1.25,0,0,1,.84,1.21,1.5,1.5,0,0,1-.4,1.13,1.27,1.27,0,0,1-.93.39,2.33,2.33,0,0,1-1-.24,3,3,0,0,0-1.35-.25,5.35,5.35,0,0,0-2.75.81,9.36,9.36,0,0,0-2.51,2.19,11.34,11.34,0,0,0-1.79,3.07,9.17,9.17,0,0,0-.67,3.42v12.14a1.5,1.5,0,0,1-1.47,1.47Z" transform="translate(-250.53 -168.55)"/><path class="cls-3" d="M740.63,641.73a2,2,0,0,1-.37-1.15,1.11,1.11,0,0,1,.62-.91,1.16,1.16,0,0,1,.91-.3,1.65,1.65,0,0,1,1,.49,10.35,10.35,0,0,0,3.22,2.78,9,9,0,0,0,4.5,1.06,8.32,8.32,0,0,0,2.72-.47,5.35,5.35,0,0,0,2.24-1.42,3.46,3.46,0,0,0,.89-2.44,3.35,3.35,0,0,0-.89-2.43,6.53,6.53,0,0,0-2.29-1.48,22.29,22.29,0,0,0-3-1c-1.11-.3-2.19-.63-3.22-1a11.94,11.94,0,0,1-2.78-1.43,6.54,6.54,0,0,1-1.94-2.09,6,6,0,0,1-.71-3,6.14,6.14,0,0,1,1.11-3.63,7.28,7.28,0,0,1,3.07-2.46A10.54,10.54,0,0,1,750,620a12.56,12.56,0,0,1,2.71.32,11.4,11.4,0,0,1,2.8,1.06,8.25,8.25,0,0,1,2.46,2,1.39,1.39,0,0,1,.44,1,1.51,1.51,0,0,1-.49,1.06,1.34,1.34,0,0,1-.91.27,1.15,1.15,0,0,1-.86-.42,7.57,7.57,0,0,0-2.8-2,9.22,9.22,0,0,0-3.49-.66,8.06,8.06,0,0,0-2.68.44,5,5,0,0,0-2.09,1.38,3.53,3.53,0,0,0-.84,2.46,3.43,3.43,0,0,0,1,2.31,7.05,7.05,0,0,0,2.41,1.47,31.24,31.24,0,0,0,3.37,1.08,28.7,28.7,0,0,1,3,.94,10.45,10.45,0,0,1,2.55,1.35,6,6,0,0,1,1.77,2,6.37,6.37,0,0,1,.67,3.09,5.93,5.93,0,0,1-1.21,3.74,7.6,7.6,0,0,1-3.22,2.41,11.49,11.49,0,0,1-4.47.84,13.26,13.26,0,0,1-5.14-1A11,11,0,0,1,740.63,641.73Z" transform="translate(-250.53 -168.55)"/></svg>