<?xml version="1.0" encoding="utf-8"?>
<!-- Generator: Adobe Illustrator 25.4.1, SVG Export Plug-In . SVG Version: 6.00 Build 0)  -->
<svg version="1.1" id="Layer_1" xmlns="http://www.w3.org/2000/svg" xmlns:xlink="http://www.w3.org/1999/xlink" x="0px" y="0px"
	 viewBox="0 0 1085 1085" style="enable-background:new 0 0 1085 1085;" xml:space="preserve">
<style type="text/css">
	.st0{fill:#323D44;}
</style>
<path class="st0" d="M693,232.3H392.3c-88.4,0-160,71.6-160,160V693c0,88.4,71.6,160,160,160H693c88.4,0,160-71.6,160-160V392.3
	C853,304,781.4,232.3,693,232.3z M704.1,561.7c0,78.6-63.7,142.4-142.3,142.4c0,0,0,0-0.1,0h-38.2c-78.6,0-142.3-63.7-142.3-142.3
	c0,0,0,0,0-0.1v-38.2c0-78.6,63.7-142.3,142.3-142.3c0,0,0,0,0,0h38.2c78.6,0,142.3,63.7,142.3,142.3c0,0,0,0,0,0V561.7z M745.5,405
	c-25.7,0-46.5-20.8-46.5-46.5s20.8-46.5,46.5-46.5s46.5,20.8,46.5,46.5S771.2,405,745.5,405L745.5,405z"/>
<path class="st0" d="M808,0H277C124,0,0,124,0,277v531c0,153,124,277,277,277H808c153,0,277-124,277-277V277C1085,124,961,0,808,0z
	 M898.1,731c0,91.7-74.4,166-166.1,166H354c-91.7,0-166-74.4-166-166.1l0,0V353c0-91.7,74.4-166,166.1-166h378
	c91.7,0,166,74.4,166,166.1V731z"/>
<path class="st0" d="M632.1,452.7c49.3,49.3,49.3,129.1,0,178.4c-49.3,49.3-129.1,49.3-178.4,0c-49.3-49.3-49.3-129.1,0-178.4
	c23.7-23.7,55.7-37,89.2-37C576.3,415.7,608.4,429,632.1,452.7z"/>
</svg>
