<svg id="Layer_1" data-name="Layer 1" xmlns="http://www.w3.org/2000/svg" viewBox="0 0 1085 1085"><path d="M690.54,229.6H389.8a160,160,0,0,0-160,160V690.3a160,160,0,0,0,160,160H690.54a160,160,0,0,0,160-160V389.56A160,160,0,0,0,690.54,229.6ZM701.62,559A142.33,142.33,0,0,1,559.28,701.38H521.06A142.33,142.33,0,0,1,378.72,559V520.82A142.33,142.33,0,0,1,521.06,378.48h38.22A142.33,142.33,0,0,1,701.62,520.82ZM743,402.26a46.5,46.5,0,1,1,46.5-46.5A46.5,46.5,0,0,1,743,402.26Z" transform="translate(2.5 2.74)"/><path d="M805.46-2.74H274.54c-153,0-277,124-277,277V805.22c0,153,124,277,277,277H805.46c153,0,277-124,277-277V274.3C1082.5,121.29,958.47-2.74,805.46-2.74Zm90.12,731A166.06,166.06,0,0,1,729.51,894.29h-378A166.05,166.05,0,0,1,185.47,728.23v-378A166.06,166.06,0,0,1,351.53,184.18h378A166.07,166.07,0,0,1,895.58,350.25Z" transform="translate(2.5 2.74)"/><path d="M629.56,449.93A126.15,126.15,0,1,1,540.37,413,125.77,125.77,0,0,1,629.56,449.93Z" transform="translate(2.5 2.74)"/></svg>